<svg xmlns:xlink="http://www.w3.org/1999/xlink" xmlns="http://www.w3.org/2000/svg" width="169" height="56" viewBox="0 0 169 56" fill="none"><SCRIPT xmlns="" id="allow-copy_script">(function agent() {
    let unlock = false
    document.addEventListener('allow_copy', (event) =&gt; {
      unlock = event.detail.unlock
    })

    const copyEvents = [
      'copy',
      'cut',
      'contextmenu',
      'selectstart',
      'mousedown',
      'mouseup',
      'mousemove',
      'keydown',
      'keypress',
      'keyup',
    ]
    const rejectOtherHandlers = (e) =&gt; {
      if (unlock) {
        e.stopPropagation()
        if (e.stopImmediatePropagation) e.stopImmediatePropagation()
      }
    }
    copyEvents.forEach((evt) =&gt; {
      document.documentElement.addEventListener(evt, rejectOtherHandlers, {
        capture: true,
      })
    })
  })()</SCRIPT>
<rect x="1.2" y="0.7" width="166.6" height="54.6" rx="9.1" fill="black"/>
<path d="M114.633 26.8805V30.0879H112.623V32.1914H114.633V39.3383C114.633 41.7788 115.737 42.7549 118.515 42.7549C119.003 42.7549 119.468 42.6968 119.875 42.6271V40.5469C119.526 40.5818 119.305 40.605 118.922 40.605C117.678 40.605 117.132 40.024 117.132 38.6992V32.1914H119.875V30.0879H117.132V26.8805H114.633Z" fill="white"/>
<path d="M126.95 42.9293C130.645 42.9293 132.912 40.454 132.912 36.3517C132.912 32.2727 130.634 29.7858 126.95 29.7858C123.254 29.7858 120.977 32.2727 120.977 36.3517C120.977 40.454 123.243 42.9293 126.95 42.9293ZM126.95 40.7096C124.777 40.7096 123.557 39.1175 123.557 36.3517C123.557 33.6091 124.777 32.0054 126.95 32.0054C129.111 32.0054 130.343 33.6091 130.343 36.3517C130.343 39.1059 129.111 40.7096 126.95 40.7096Z" fill="white"/>
<path d="M134.85 42.6852H137.349V35.2128C137.349 33.4348 138.685 32.2378 140.58 32.2378C141.021 32.2378 141.765 32.3192 141.974 32.3889V29.9252C141.707 29.8555 141.23 29.8207 140.859 29.8207C139.208 29.8207 137.802 30.7271 137.442 31.9706H137.256V30.0298H134.85V42.6852Z" fill="white"/>
<path d="M148.178 31.9125C150.026 31.9125 151.234 33.2024 151.292 35.1896H144.901C145.04 33.214 146.33 31.9125 148.178 31.9125ZM151.281 39.2686C150.816 40.2564 149.782 40.8026 148.271 40.8026C146.272 40.8026 144.982 39.3964 144.901 37.1768V37.0374H153.837V36.1658C153.837 32.1914 151.711 29.7858 148.19 29.7858C144.622 29.7858 142.356 32.3541 142.356 36.3982C142.356 40.4423 144.575 42.9293 148.201 42.9293C151.095 42.9293 153.117 41.5347 153.686 39.2686H151.281Z" fill="white"/>
<path d="M98.2484 38.0118C98.4411 41.1194 101.031 43.1068 104.885 43.1068C109.005 43.1068 111.582 41.023 111.582 37.6986C111.582 35.0849 110.113 33.6395 106.547 32.8084L104.632 32.3386C102.368 31.8086 101.452 31.098 101.452 29.8574C101.452 28.2915 102.874 27.2677 105.006 27.2677C107.029 27.2677 108.426 28.2674 108.679 29.8694H111.305C111.149 26.9425 108.571 24.8828 105.042 24.8828C101.248 24.8828 98.7182 26.9425 98.7182 30.038C98.7182 32.5916 100.151 34.1092 103.295 34.844L105.536 35.386C107.836 35.928 108.848 36.723 108.848 38.0479C108.848 39.5897 107.258 40.7098 105.09 40.7098C102.765 40.7098 101.151 39.6619 100.922 38.0118H98.2484Z" fill="white"/>
<path d="M72.3661 29.8207C70.6462 29.8207 69.1587 30.6806 68.3917 32.1216H68.2058V30.0298H65.8002V46.892H68.2987V40.7677H68.4963C69.1587 42.1042 70.5881 42.8944 72.3894 42.8944C75.5852 42.8944 77.6189 40.3726 77.6189 36.3517C77.6189 32.3308 75.5852 29.8207 72.3661 29.8207ZM71.6572 40.6515C69.5655 40.6515 68.2523 39.0013 68.2523 36.3633C68.2523 33.7137 69.5655 32.0635 71.6689 32.0635C73.7839 32.0635 75.0506 33.6789 75.0506 36.3517C75.0506 39.0362 73.7839 40.6515 71.6572 40.6515Z" fill="white"/>
<path d="M86.3616 29.8207C84.6417 29.8207 83.1542 30.6806 82.3872 32.1216H82.2013V30.0298H79.7957V46.892H82.2943V40.7677H82.4918C83.1542 42.1042 84.5836 42.8944 86.3849 42.8944C89.5807 42.8944 91.6144 40.3726 91.6144 36.3517C91.6144 32.3308 89.5807 29.8207 86.3616 29.8207ZM85.6528 40.6515C83.561 40.6515 82.2478 39.0013 82.2478 36.3633C82.2478 33.7137 83.561 32.0635 85.6644 32.0635C87.7794 32.0635 89.0461 33.6789 89.0461 36.3517C89.0461 39.0362 87.7794 40.6515 85.6528 40.6515Z" fill="white"/>
<path d="M61.3174 42.6852H64.1841L57.9087 25.3044H55.0059L48.7305 42.6852H51.5008L53.1028 38.072H59.7275L61.3174 42.6852ZM56.3188 28.4602H56.5235L59.0409 35.8076H53.7893L56.3188 28.4602Z" fill="white"/>
<path d="M50.4141 12.2016V20.5862H53.4414C55.9399 20.5862 57.3867 19.0464 57.3867 16.3678C57.3867 13.7298 55.9283 12.2016 53.4414 12.2016H50.4141ZM51.7156 13.387H53.2961C55.0334 13.387 56.0619 14.491 56.0619 16.3852C56.0619 18.3085 55.0509 19.4009 53.2961 19.4009H51.7156V13.387Z" fill="white"/>
<path d="M61.8178 20.7083C63.6656 20.7083 64.7987 19.4706 64.7987 17.4195C64.7987 15.38 63.6598 14.1365 61.8178 14.1365C59.9701 14.1365 58.8312 15.38 58.8312 17.4195C58.8312 19.4706 59.9643 20.7083 61.8178 20.7083ZM61.8178 19.5984C60.7313 19.5984 60.1212 18.8024 60.1212 17.4195C60.1212 16.0482 60.7313 15.2463 61.8178 15.2463C62.8986 15.2463 63.5145 16.0482 63.5145 17.4195C63.5145 18.7966 62.8986 19.5984 61.8178 19.5984Z" fill="white"/>
<path d="M74.4476 14.2585H73.1984L72.0711 19.0871H71.9724L70.6708 14.2585H69.4738L68.1723 19.0871H68.0793L66.9462 14.2585H65.6795L67.4227 20.5862H68.7068L70.0084 15.9262H70.1072L71.4145 20.5862H72.7103L74.4476 14.2585Z" fill="white"/>
<path d="M75.8863 20.5862H77.1356V16.8849C77.1356 15.8971 77.7225 15.2812 78.6463 15.2812C79.5702 15.2812 80.0118 15.7867 80.0118 16.8036V20.5862H81.2611V16.4898C81.2611 14.9849 80.4825 14.1365 79.0705 14.1365C78.1176 14.1365 77.49 14.5607 77.1821 15.2638H77.0891V14.2585H75.8863V20.5862Z" fill="white"/>
<path d="M83.2285 20.5862H84.4778V11.7891H83.2285V20.5862Z" fill="white"/>
<path d="M89.1762 20.7083C91.024 20.7083 92.157 19.4706 92.157 17.4195C92.157 15.38 91.0182 14.1365 89.1762 14.1365C87.3285 14.1365 86.1896 15.38 86.1896 17.4195C86.1896 19.4706 87.3227 20.7083 89.1762 20.7083ZM89.1762 19.5984C88.0896 19.5984 87.4795 18.8024 87.4795 17.4195C87.4795 16.0482 88.0896 15.2463 89.1762 15.2463C90.257 15.2463 90.8729 16.0482 90.8729 17.4195C90.8729 18.7966 90.257 19.5984 89.1762 19.5984Z" fill="white"/>
<path d="M95.8793 19.6391C95.1994 19.6391 94.7055 19.3079 94.7055 18.7385C94.7055 18.1807 95.1007 17.8843 95.9722 17.8262L97.5178 17.7274V18.2562C97.5178 19.0406 96.8206 19.6391 95.8793 19.6391ZM95.5597 20.6908C96.3906 20.6908 97.082 20.3306 97.4597 19.6972H97.5585V20.5862H98.7613V16.2632C98.7613 14.9268 97.8665 14.1365 96.2802 14.1365C94.845 14.1365 93.8223 14.8338 93.6945 15.9204H94.9031C95.0425 15.4729 95.5248 15.2173 96.2221 15.2173C97.0762 15.2173 97.5178 15.595 97.5178 16.2632V16.8094L95.8037 16.9082C94.2988 17.0011 93.4505 17.6577 93.4505 18.7966C93.4505 19.9529 94.3395 20.6908 95.5597 20.6908Z" fill="white"/>
<path d="M103.001 20.6908C103.872 20.6908 104.61 20.2783 104.988 19.5868H105.087V20.5862H106.284V11.7891H105.034V15.2638H104.941C104.599 14.5665 103.866 14.154 103.001 14.154C101.403 14.154 100.374 15.4207 100.374 17.4195C100.374 19.4241 101.391 20.6908 103.001 20.6908ZM103.355 15.2754C104.401 15.2754 105.058 16.1063 105.058 17.4253C105.058 18.7501 104.407 19.5694 103.355 19.5694C102.298 19.5694 101.664 18.7617 101.664 17.4195C101.664 16.0889 102.303 15.2754 103.355 15.2754Z" fill="white"/>
<path d="M114.385 20.7083C116.232 20.7083 117.366 19.4706 117.366 17.4195C117.366 15.38 116.227 14.1365 114.385 14.1365C112.537 14.1365 111.398 15.38 111.398 17.4195C111.398 19.4706 112.531 20.7083 114.385 20.7083ZM114.385 19.5984C113.298 19.5984 112.688 18.8024 112.688 17.4195C112.688 16.0482 113.298 15.2463 114.385 15.2463C115.465 15.2463 116.081 16.0482 116.081 17.4195C116.081 18.7966 115.465 19.5984 114.385 19.5984Z" fill="white"/>
<path d="M119.019 20.5862H120.268V16.8849C120.268 15.8971 120.855 15.2812 121.779 15.2812C122.703 15.2812 123.145 15.7867 123.145 16.8036V20.5862H124.394V16.4898C124.394 14.9849 123.615 14.1365 122.203 14.1365C121.25 14.1365 120.623 14.5607 120.315 15.2638H120.222V14.2585H119.019V20.5862Z" fill="white"/>
<path d="M130.148 12.6839V14.2876H129.142V15.3393H130.148V18.9128C130.148 20.133 130.7 20.6211 132.088 20.6211C132.332 20.6211 132.565 20.592 132.768 20.5572V19.5171C132.594 19.5345 132.483 19.5461 132.292 19.5461C131.67 19.5461 131.397 19.2556 131.397 18.5932V15.3393H132.768V14.2876H131.397V12.6839H130.148Z" fill="white"/>
<path d="M134.445 20.5862H135.694V16.8907C135.694 15.932 136.264 15.287 137.286 15.287C138.17 15.287 138.64 15.7983 138.64 16.8094V20.5862H139.89V16.5014C139.89 14.9965 139.059 14.1423 137.711 14.1423C136.758 14.1423 136.089 14.5665 135.781 15.2754H135.683V11.7891H134.445V20.5862Z" fill="white"/>
<path d="M144.396 15.1999C145.32 15.1999 145.924 15.8448 145.953 16.8384H142.758C142.827 15.8506 143.472 15.1999 144.396 15.1999ZM145.948 18.8779C145.715 19.3718 145.198 19.6449 144.443 19.6449C143.443 19.6449 142.798 18.9418 142.758 17.832V17.7623H147.226V17.3265C147.226 15.3393 146.163 14.1365 144.402 14.1365C142.618 14.1365 141.485 15.4207 141.485 17.4427C141.485 19.4648 142.595 20.7083 144.408 20.7083C145.855 20.7083 146.866 20.011 147.15 18.8779H145.948Z" fill="white"/>
<path d="M35.1772 28.4313C35.2075 26.0779 36.4714 23.851 38.4764 22.6184C37.2115 20.8119 35.0929 19.6666 32.8887 19.5976C30.5378 19.3509 28.2587 21.0044 27.0607 21.0044C25.8395 21.0044 23.995 19.6221 22.0088 19.663C19.4198 19.7466 17.0063 21.2186 15.7467 23.482C13.0391 28.1698 15.0587 35.0593 17.6524 38.8485C18.95 40.704 20.4666 42.7766 22.451 42.7031C24.3929 42.6226 25.1182 41.4649 27.4622 41.4649C29.7845 41.4649 30.4649 42.7031 32.4896 42.6564C34.5733 42.6226 35.8862 40.7927 37.1383 38.9196C38.0707 37.5975 38.7881 36.1363 39.2641 34.5901C36.8153 33.5544 35.18 31.09 35.1772 28.4313Z" fill="white"/>
<path d="M31.3528 17.1056C32.489 15.7417 33.0487 13.9887 32.9132 12.2188C31.1774 12.4011 29.574 13.2306 28.4226 14.5422C27.2966 15.8237 26.7106 17.5459 26.8214 19.2481C28.5578 19.266 30.2648 18.4589 31.3528 17.1056Z" fill="white"/>
<rect x="1.2" y="0.7" width="166.6" height="54.6" rx="9.1" stroke="#A6A6A6" stroke-width="1.4"/>
</svg>