<svg width="459" height="288" viewBox="0 0 459 288" fill="none" xmlns="http://www.w3.org/2000/svg">
<path d="M225.224 132.532C234.735 133.911 248.554 85.722 252.939 71.8803C255.598 63.4916 269.956 69.6558 272.519 77.8186C275.702 87.9609 277.549 114.952 278.145 122.25C278.395 125.297 279.948 124.83 281.112 123.082C282.77 120.583 288.738 108.341 293.561 90.1085C295.902 62.6172 309.875 31.9742 317.477 8.81179C319.516 2.59479 323.046 2.59959 326.844 7.25994C328.152 8.85983 329.835 13.0349 329.864 16.7056C329.941 27.0688 325.301 41.7609 322.127 57.8608C344.635 54.8436 355.459 75.3203 354.156 97.9638C353.714 105.651 350.958 113.713 348.131 119.166C341.909 131.153 332.013 138.307 322.103 139.071C306.351 140.291 300.037 128.626 296.974 117.287C296.643 116.057 296.018 115.399 295.614 116.605C292.868 124.744 288.242 140.214 279.328 143.9C270.052 147.733 260.705 135.612 258.512 128.04C258.055 126.459 257.517 127.632 256.892 128.977C251.03 141.627 243.885 152.163 229.522 154.46C211.448 157.347 198.739 145.528 198.234 127.137C197.729 108.745 210.188 86.2313 214.121 64.7456C215.693 56.1456 223.55 59.6721 225.777 66.9364C227.229 71.6737 227.815 76.0602 226.959 83.8242C224.757 103.806 218.631 131.581 225.219 132.532H225.224ZM321.993 67.7292C320.704 67.0277 320.281 67.0566 319.939 68.5796C316.564 83.757 313.679 105.661 318.386 111.954C320.012 114.131 325.205 114.049 328.094 110.614C332.754 105.074 335.11 96.6858 334.605 87.0096C334.129 77.8234 329.907 72.0292 321.988 67.7244L321.993 67.7292ZM392.089 7.50977C387.949 -0.816398 370.855 -4.72725 371.649 9.27782C374.303 55.963 354.286 103.893 363.677 123.178C366.489 128.958 380.015 133.873 380.66 124.48C382.612 96.1141 401.653 26.7325 392.089 7.50977ZM438.351 41.982C407.5 37.1102 386.497 72.6201 397.004 97.9782C405.986 119.656 428.023 120.535 438.563 116.548C453.829 110.763 458.993 98.2473 458.993 91.2952C458.993 89.3302 458.541 88.3837 457.32 88.1627C455.964 87.9176 455.022 89.138 454.041 90.0556C452.305 91.6747 449.766 94.9562 446.184 97.2624C436.711 103.359 421.589 105.613 415.372 93.8752C406.606 77.3189 420.098 58.9322 433.509 61.1518C442.674 62.6701 431.321 77.0835 420.973 85.7652C416.059 89.8923 422.267 92.7029 426.407 91.6459C458.243 83.5167 468.538 46.7432 438.346 41.982H438.351ZM159.969 71.8995C150.064 73.6675 141.394 79.7644 136.177 87.5525C129.06 98.18 127.18 111.82 126.349 120.583C124.906 135.765 128.219 155.57 150.116 156.233C168.826 156.8 189.391 141.589 193.849 112.911C198.46 83.2333 185.343 67.3689 159.969 71.8995ZM158.69 137.538C150.862 137.538 150.16 129.323 154.785 108.447C157.267 97.2431 163.056 86.2505 172.528 85.6067C179.198 85.1551 179.948 96.0756 174.755 114.602C172.552 122.447 167.013 137.543 158.69 137.538ZM117.66 125.921C125.844 103.864 123.93 82.6663 116.462 67.6283C109.067 52.7344 92.2666 42.6017 73.2109 38.5179C65.0799 36.7739 54.4534 36.6874 45.5098 38.0855C20.7465 41.9579 -2.27126 64.0249 0.176216 90.5841C1.2533 102.288 9.84109 111.921 17.6451 113.122C28.3582 114.77 30.2095 108.217 25.276 106.228C19.4435 103.878 17.3662 96.5609 18.2221 90.3151C21.7034 64.8849 48.0486 55.2712 66.1138 60.2054C90.1173 66.7587 101.374 92.7702 96.2095 116.091C91.1222 139.052 76.3316 154.902 52.4387 162.45C50.573 163.041 50.5682 161.292 50.8182 160.23C59.709 122.986 64.1952 84.7563 60.6322 76.8481C57.5212 69.9441 44.0769 73.5186 44.048 78.938C43.9855 90.046 37.826 126.714 29.719 172.851C28.7092 178.612 42.1776 178.199 48.1111 178.199C65.9407 178.199 85.3473 168.268 97.9261 156.478C108.019 147.018 112.664 139.407 117.665 125.931L117.66 125.921ZM386.05 131.677C384.425 138.965 382.424 153.528 381.073 163.074C381.03 163.377 380.708 163.521 380.458 163.358C366.225 154.287 349.482 161.849 337.985 179.198C327.782 194.596 324.493 215.126 331.013 233.686C337.514 252.188 366.441 258.054 379.934 227.699C380.107 227.31 380.703 227.382 380.751 227.81C381.323 233.1 382.064 244.755 388.998 243.357C391.416 242.867 396.893 241.498 398.186 235.588C400.278 226.047 403.456 149.574 403.009 127.824C402.774 116.279 388.815 119.272 386.05 131.672V131.677ZM354.137 225.287C343.736 223.308 349.42 170.949 378.833 174.639C379.39 174.711 379.737 175.239 379.703 175.806C378.082 200.986 367.562 227.843 354.137 225.287ZM196.484 207.809C203.523 191.675 214.222 182.393 228.176 181.053C245.145 179.424 251.367 189.95 258.147 199.929C258.512 200.467 259.08 201.207 259.541 200.424C267.97 186.121 276.678 173.74 293.027 172.39C317.223 170.391 324.301 195.812 321.993 216.25C319.675 236.775 304.553 258.232 283.674 260.115C272.303 261.143 264.902 254.052 259.411 245.524C259.046 244.957 258.426 244.477 257.969 245.279C249.65 259.861 238.692 269.297 222.694 270.743C202.97 272.525 190.276 256.142 191.272 231.442C191.555 224.384 193.729 214.127 196.489 207.809H196.484ZM225.507 245.173C236.85 244.659 242.861 235.492 250.035 222.669C250.468 221.895 250.208 221.261 250.083 220.56C249.016 214.665 240.788 201.568 232.931 200.905C219.795 199.79 212.981 213.665 211.726 225.744C210.616 236.429 214.583 245.673 225.507 245.173ZM284.449 235.406C292.892 233.907 299.345 224.865 301.48 212.781C302.855 204.993 299.59 194.226 289.469 194.361C279.525 194.496 273.687 206.334 267.687 221.992C267.36 222.837 267.624 223.519 267.961 224.115C270.499 228.612 275.64 236.972 284.449 235.411V235.406ZM185.593 225.797C184.415 218.744 179.212 215.909 173.384 216.169C163.421 216.615 148.294 221.136 139.273 226.657C129.618 232.566 131.167 239.105 136.836 239.072C146.525 239.014 150.703 238.216 160.445 237.183C162.71 236.943 163.368 237.39 162.777 239.715C158.805 255.364 145.356 267.975 128.248 265.929C107.36 263.43 112.385 232.163 116.337 220.848C122.675 202.721 134.725 180.01 147.924 178.396C157.964 177.166 156.146 189.806 162.835 190.532C174.697 191.815 173.985 162.685 149.713 162.685C119.775 162.685 99.5177 193.587 90.1221 219.988C79.1301 250.857 90.2327 283.249 117.097 287.414C138.788 290.777 168.287 280.03 181.679 247.897C185.53 237.52 186.348 230.366 185.583 225.797H185.593ZM417.478 125.364C417.478 127.992 415.348 130.12 412.717 130.12C410.087 130.12 407.957 127.992 407.957 125.364C407.957 122.736 410.087 120.607 412.717 120.607C415.348 120.607 417.478 122.736 417.478 125.364ZM417.016 125.364C417.016 122.957 415.098 121.025 412.717 121.025C410.337 121.025 408.419 122.957 408.419 125.364C408.419 127.771 410.352 129.702 412.717 129.702C415.083 129.702 417.016 127.756 417.016 125.364ZM413.939 125.969L414.939 127.795H413.626L412.852 126.257H412.261V127.795H411.049V122.933H412.852C413.944 122.933 414.718 123.615 414.718 124.523C414.718 125.181 414.429 125.681 413.944 125.969H413.939ZM412.256 125.205H412.78C413.242 125.205 413.506 124.97 413.506 124.629C413.506 124.249 413.242 124.052 412.78 124.052H412.256V125.21V125.205Z" fill="black"/>
</svg>
