<svg xmlns:xlink="http://www.w3.org/1999/xlink" xmlns="http://www.w3.org/2000/svg" width="190" height="56" viewBox="0 0 190 56" fill="none"><SCRIPT xmlns="" id="allow-copy_script">(function agent() {
    let unlock = false
    document.addEventListener('allow_copy', (event) =&gt; {
      unlock = event.detail.unlock
    })

    const copyEvents = [
      'copy',
      'cut',
      'contextmenu',
      'selectstart',
      'mousedown',
      'mouseup',
      'mousemove',
      'keydown',
      'keypress',
      'keyup',
    ]
    const rejectOtherHandlers = (e) =&gt; {
      if (unlock) {
        e.stopPropagation()
        if (e.stopImmediatePropagation) e.stopImmediatePropagation()
      }
    }
    copyEvents.forEach((evt) =&gt; {
      document.documentElement.addEventListener(evt, rejectOtherHandlers, {
        capture: true,
      })
    })
  })()</SCRIPT>
<rect x="1.2" y="0.7" width="187.6" height="54.6" rx="6.3" fill="black"/>
<path d="M95.8925 30.4606C92.5997 30.4606 89.9159 32.9652 89.9159 36.4148C89.9159 39.8434 92.5997 42.369 95.8925 42.369C99.1867 42.369 101.871 39.8434 101.871 36.4148C101.869 32.9652 99.1853 30.4606 95.8925 30.4606ZM95.8925 40.0254C94.0879 40.0254 92.5325 38.5372 92.5325 36.4162C92.5325 34.2728 94.0893 32.807 95.8925 32.807C97.6971 32.807 99.2525 34.2728 99.2525 36.4162C99.2525 38.5358 97.6971 40.0254 95.8925 40.0254ZM82.8529 30.4606C79.5601 30.4606 76.8763 32.9652 76.8763 36.4148C76.8763 39.8434 79.5601 42.369 82.8529 42.369C86.1471 42.369 88.8309 39.8434 88.8309 36.4148C88.8309 32.9652 86.1471 30.4606 82.8529 30.4606ZM82.8529 40.0254C81.0483 40.0254 79.4929 38.5372 79.4929 36.4162C79.4929 34.2728 81.0497 32.807 82.8529 32.807C84.6575 32.807 86.2129 34.2728 86.2129 36.4162C86.2143 38.5358 84.6575 40.0254 82.8529 40.0254ZM67.3437 32.289V34.8146H73.3889C73.2083 36.2356 72.7351 37.273 72.0127 37.994C71.1335 38.8732 69.7573 39.8434 67.3437 39.8434C63.6225 39.8434 60.7133 36.8432 60.7133 33.122C60.7133 29.4008 63.6225 26.4006 67.3437 26.4006C69.3513 26.4006 70.8171 27.1902 71.8993 28.2052L73.6815 26.423C72.1695 24.9796 70.1633 23.875 67.3437 23.875C62.2463 23.875 57.9609 28.0246 57.9609 33.122C57.9609 38.2194 62.2463 42.369 67.3437 42.369C70.0947 42.369 72.1709 41.466 73.7935 39.7748C75.4623 38.106 75.9817 35.7596 75.9817 33.8654C75.9817 33.2802 75.9369 32.7384 75.8459 32.2876H67.3437V32.289ZM130.775 34.2504C130.279 32.9204 128.767 30.4606 125.678 30.4606C122.61 30.4606 120.061 32.8742 120.061 36.4148C120.061 39.7524 122.588 42.369 125.97 42.369C128.699 42.369 130.278 40.7002 130.933 39.73L128.903 38.3762C128.227 39.3688 127.302 40.0226 125.97 40.0226C124.64 40.0226 123.692 39.4136 123.083 38.218L131.045 34.9252L130.775 34.2504ZM122.655 36.2356C122.588 33.934 124.437 32.7622 125.769 32.7622C126.806 32.7622 127.685 33.2816 127.979 34.025L122.655 36.2356ZM116.183 42.0092H118.798V24.5078H116.183V42.0092ZM111.896 31.792H111.806C111.22 31.092 110.091 30.4606 108.672 30.4606C105.694 30.4606 102.965 33.0772 102.965 36.4386C102.965 39.7762 105.694 42.3704 108.672 42.3704C110.093 42.3704 111.22 41.739 111.806 41.018H111.896V41.8748C111.896 44.1526 110.678 45.3706 108.717 45.3706C107.115 45.3706 106.122 44.2212 105.716 43.251L103.439 44.1988C104.092 45.7766 105.828 47.717 108.717 47.717C111.784 47.717 114.378 45.9124 114.378 41.5136V30.8232H111.897V31.792H111.896ZM108.897 40.0254C107.093 40.0254 105.582 38.5134 105.582 36.4386C105.582 34.34 107.093 32.807 108.897 32.807C110.678 32.807 112.077 34.34 112.077 36.4386C112.077 38.5134 110.678 40.0254 108.897 40.0254ZM143.031 24.5078H136.771V42.0092H139.382V35.3788H143.029C145.924 35.3788 148.772 33.283 148.772 29.944C148.772 26.605 145.926 24.5078 143.031 24.5078ZM143.098 32.9428H139.382V26.9438H143.098C145.051 26.9438 146.16 28.5608 146.16 29.944C146.16 31.2992 145.051 32.9428 143.098 32.9428ZM159.243 30.4298C157.351 30.4298 155.393 31.2628 154.582 33.1094L156.9 34.0768C157.396 33.1094 158.32 32.793 159.287 32.793C160.638 32.793 162.012 33.6036 162.034 35.0442V35.2248C161.561 34.9546 160.547 34.55 159.31 34.55C156.811 34.55 154.266 35.9234 154.266 38.4896C154.266 40.8318 156.315 42.3396 158.611 42.3396C160.367 42.3396 161.336 41.5514 161.943 40.6274H162.033V41.9784H164.556V35.2682C164.557 32.163 162.236 30.4298 159.243 30.4298ZM158.926 40.0212C158.072 40.0212 156.878 39.5928 156.878 38.5344C156.878 37.1834 158.365 36.6654 159.649 36.6654C160.795 36.6654 161.337 36.9132 162.034 37.2506C161.831 38.8732 160.435 40.0212 158.926 40.0212ZM173.742 30.812L170.748 38.4H170.658L167.55 30.812H164.736L169.397 41.417L166.74 47.3166H169.464L176.647 30.812H173.742ZM150.214 42.0092H152.825V24.5078H150.214V42.0092Z" fill="white"/>
<path d="M66.8908 14.3463C66.8908 15.5195 66.5436 16.4533 65.8478 17.1505C65.0582 17.9793 64.0278 18.3937 62.7622 18.3937C61.5498 18.3937 60.518 17.9737 59.671 17.1337C58.8226 16.2923 58.3984 15.2507 58.3984 14.0075C58.3984 12.7629 58.8226 11.7213 59.671 10.8813C60.518 10.0399 61.5498 9.61992 62.7622 9.61992C63.3642 9.61992 63.9396 9.73752 64.4856 9.97132C65.033 10.2065 65.4712 10.5187 65.7988 10.9093L65.061 11.6485C64.5052 10.9835 63.7394 10.6517 62.7608 10.6517C61.876 10.6517 61.1116 10.9625 60.4662 11.5841C59.8208 12.2057 59.4988 13.0135 59.4988 14.0061C59.4988 14.9987 59.8208 15.8065 60.4662 16.4281C61.1116 17.0497 61.876 17.3605 62.7608 17.3605C63.6988 17.3605 64.4814 17.0483 65.1072 16.4225C65.5132 16.0151 65.7484 15.4481 65.8114 14.7215H62.7608V13.7121H66.8306C66.8726 13.9319 66.8908 14.1433 66.8908 14.3463Z" fill="white"/>
<path d="M73.345 10.838H69.5202V13.5008H72.9698V14.5102H69.5202V17.173H73.345V18.2062H68.4408V9.8062H73.345V10.838Z" fill="white"/>
<path d="M77.8962 18.2062H76.8168V10.838H74.4704V9.8062H80.2426V10.838H77.8962V18.2062Z" fill="white"/>
<path d="M84.4188 18.2062V9.8062H85.4981V18.2062H84.4188Z" fill="white"/>
<path d="M90.285 18.2062H89.2056V10.838H86.8592V9.8062H92.6314V10.838H90.285V18.2062Z" fill="white"/>
<path d="M103.558 17.1212C102.732 17.9696 101.706 18.3938 100.478 18.3938C99.2503 18.3938 98.2241 17.9696 97.3995 17.1212C96.5735 16.2728 96.1619 15.234 96.1619 14.0062C96.1619 12.7784 96.5735 11.7396 97.3995 10.8912C98.2241 10.0428 99.2503 9.61719 100.478 9.61719C101.699 9.61719 102.724 10.0442 103.552 10.8968C104.381 11.7494 104.796 12.7854 104.796 14.0062C104.796 15.234 104.383 16.2728 103.558 17.1212ZM98.1961 16.417C98.8177 17.047 99.5779 17.3606 100.478 17.3606C101.378 17.3606 102.14 17.0456 102.76 16.417C103.382 15.787 103.694 14.9834 103.694 14.0062C103.694 13.029 103.382 12.2254 102.76 11.5954C102.14 10.9654 101.378 10.6518 100.478 10.6518C99.5779 10.6518 98.8177 10.9668 98.1961 11.5954C97.5759 12.2254 97.2637 13.029 97.2637 14.0062C97.2637 14.9834 97.5759 15.787 98.1961 16.417Z" fill="white"/>
<path d="M106.31 18.2062V9.8062H107.624L111.706 16.34H111.752L111.706 14.7216V9.8062H112.785V18.2062H111.658L107.387 11.3546H107.341L107.387 12.973V18.2062H106.31Z" fill="white"/>
<path d="M66.8908 14.3463C66.8908 15.5195 66.5436 16.4533 65.8478 17.1505C65.0582 17.9793 64.0278 18.3937 62.7622 18.3937C61.5498 18.3937 60.518 17.9737 59.671 17.1337C58.8226 16.2923 58.3984 15.2507 58.3984 14.0075C58.3984 12.7629 58.8226 11.7213 59.671 10.8813C60.518 10.0399 61.5498 9.61992 62.7622 9.61992C63.3642 9.61992 63.9396 9.73752 64.4856 9.97132C65.033 10.2065 65.4712 10.5187 65.7988 10.9093L65.061 11.6485C64.5052 10.9835 63.7394 10.6517 62.7608 10.6517C61.876 10.6517 61.1116 10.9625 60.4662 11.5841C59.8208 12.2057 59.4988 13.0135 59.4988 14.0061C59.4988 14.9987 59.8208 15.8065 60.4662 16.4281C61.1116 17.0497 61.876 17.3605 62.7608 17.3605C63.6988 17.3605 64.4814 17.0483 65.1072 16.4225C65.5132 16.0151 65.7484 15.4481 65.8114 14.7215H62.7608V13.7121H66.8306C66.8726 13.9319 66.8908 14.1433 66.8908 14.3463Z" stroke="white" stroke-width="0.28" stroke-miterlimit="10"/>
<path d="M73.345 10.838H69.5202V13.5008H72.9698V14.5102H69.5202V17.173H73.345V18.2062H68.4408V9.8062H73.345V10.838Z" stroke="white" stroke-width="0.28" stroke-miterlimit="10"/>
<path d="M77.8962 18.2062H76.8168V10.838H74.4704V9.8062H80.2426V10.838H77.8962V18.2062Z" stroke="white" stroke-width="0.28" stroke-miterlimit="10"/>
<path d="M84.4188 18.2062V9.8062H85.4981V18.2062H84.4188Z" stroke="white" stroke-width="0.28" stroke-miterlimit="10"/>
<path d="M90.285 18.2062H89.2056V10.838H86.8592V9.8062H92.6314V10.838H90.285V18.2062Z" stroke="white" stroke-width="0.28" stroke-miterlimit="10"/>
<path d="M103.558 17.1212C102.732 17.9696 101.706 18.3938 100.478 18.3938C99.2503 18.3938 98.2241 17.9696 97.3995 17.1212C96.5735 16.2728 96.1619 15.234 96.1619 14.0062C96.1619 12.7784 96.5735 11.7396 97.3995 10.8912C98.2241 10.0428 99.2503 9.61719 100.478 9.61719C101.699 9.61719 102.724 10.0442 103.552 10.8968C104.381 11.7494 104.796 12.7854 104.796 14.0062C104.796 15.234 104.383 16.2728 103.558 17.1212ZM98.1961 16.417C98.8177 17.047 99.5779 17.3606 100.478 17.3606C101.378 17.3606 102.14 17.0456 102.76 16.417C103.382 15.787 103.694 14.9834 103.694 14.0062C103.694 13.029 103.382 12.2254 102.76 11.5954C102.14 10.9654 101.378 10.6518 100.478 10.6518C99.5779 10.6518 98.8177 10.9668 98.1961 11.5954C97.5759 12.2254 97.2637 13.029 97.2637 14.0062C97.2637 14.9834 97.5759 15.787 98.1961 16.417Z" stroke="white" stroke-width="0.28" stroke-miterlimit="10"/>
<path d="M106.31 18.2062V9.8062H107.624L111.706 16.34H111.752L111.706 14.7216V9.8062H112.785V18.2062H111.658L107.387 11.3546H107.341L107.387 12.973V18.2062H106.31Z" stroke="white" stroke-width="0.28" stroke-miterlimit="10"/>
<g filter="url(#filter0_ii_172_5752)">
<path d="M15.113 10.5553C14.7056 10.9865 14.4648 11.6557 14.4648 12.5223V43.4847C14.4648 44.3527 14.7056 45.0205 15.113 45.4517L15.2166 45.5525L32.5612 28.2079V28.0035V27.7991L15.2166 10.4531L15.113 10.5553Z" fill="url(#paint0_linear_172_5752)"/>
<path d="M38.3392 33.9898L32.5586 28.2064V28.002V27.7976L38.3406 22.0156L38.4708 22.0898L45.321 25.9818C47.2768 27.0934 47.2768 28.912 45.321 30.025L38.4708 33.917L38.3392 33.9898Z" fill="url(#paint1_linear_172_5752)"/>
<g filter="url(#filter1_i_172_5752)">
<path d="M38.4776 33.9214L32.564 28.0078L15.1172 45.456C15.7612 46.1392 16.8266 46.2232 18.0264 45.5428L38.4776 33.9214Z" fill="url(#paint2_linear_172_5752)"/>
</g>
<path d="M38.4776 22.0905L18.0264 10.4705C16.8266 9.78871 15.7612 9.87411 15.1172 10.5573L32.5654 28.0055L38.4776 22.0905Z" fill="url(#paint3_linear_172_5752)"/>
</g>
<rect x="1.2" y="0.7" width="187.6" height="54.6" rx="6.3" stroke="#A6A6A6" stroke-width="1.4"/>
<defs>
<filter id="filter0_ii_172_5752" x="14.4648" y="10" width="32.323" height="36.0127" filterUnits="userSpaceOnUse" color-interpolation-filters="sRGB">
<feFlood flood-opacity="0" result="BackgroundImageFix"/>
<feBlend mode="normal" in="SourceGraphic" in2="BackgroundImageFix" result="shape"/>
<feColorMatrix in="SourceAlpha" type="matrix" values="0 0 0 0 0 0 0 0 0 0 0 0 0 0 0 0 0 0 127 0" result="hardAlpha"/>
<feOffset dy="-0.21"/>
<feComposite in2="hardAlpha" operator="arithmetic" k2="-1" k3="1"/>
<feColorMatrix type="matrix" values="0 0 0 0 0 0 0 0 0 0 0 0 0 0 0 0 0 0 0.12 0"/>
<feBlend mode="normal" in2="shape" result="effect1_innerShadow_172_5752"/>
<feColorMatrix in="SourceAlpha" type="matrix" values="0 0 0 0 0 0 0 0 0 0 0 0 0 0 0 0 0 0 127 0" result="hardAlpha"/>
<feOffset dy="0.21"/>
<feComposite in2="hardAlpha" operator="arithmetic" k2="-1" k3="1"/>
<feColorMatrix type="matrix" values="0 0 0 0 1 0 0 0 0 1 0 0 0 0 1 0 0 0 0.25 0"/>
<feBlend mode="normal" in2="effect1_innerShadow_172_5752" result="effect2_innerShadow_172_5752"/>
</filter>
<filter id="filter1_i_172_5752" x="15.1172" y="28.0078" width="23.3604" height="18.0049" filterUnits="userSpaceOnUse" color-interpolation-filters="sRGB">
<feFlood flood-opacity="0" result="BackgroundImageFix"/>
<feBlend mode="normal" in="SourceGraphic" in2="BackgroundImageFix" result="shape"/>
<feColorMatrix in="SourceAlpha" type="matrix" values="0 0 0 0 0 0 0 0 0 0 0 0 0 0 0 0 0 0 127 0" result="hardAlpha"/>
<feOffset dy="-0.21"/>
<feComposite in2="hardAlpha" operator="arithmetic" k2="-1" k3="1"/>
<feColorMatrix type="matrix" values="0 0 0 0 0 0 0 0 0 0 0 0 0 0 0 0 0 0 0.08 0"/>
<feBlend mode="normal" in2="shape" result="effect1_innerShadow_172_5752"/>
</filter>
<linearGradient id="paint0_linear_172_5752" x1="31.0238" y1="12.1947" x2="7.52896" y2="35.6895" gradientUnits="userSpaceOnUse">
<stop stop-color="#00A0FF"/>
<stop offset="0.0066" stop-color="#00A1FF"/>
<stop offset="0.2601" stop-color="#00BEFF"/>
<stop offset="0.5122" stop-color="#00D2FF"/>
<stop offset="0.7604" stop-color="#00DFFF"/>
<stop offset="1" stop-color="#00E3FF"/>
</linearGradient>
<linearGradient id="paint1_linear_172_5752" x1="47.8669" y1="28.002" x2="13.9926" y2="28.002" gradientUnits="userSpaceOnUse">
<stop stop-color="#FFE000"/>
<stop offset="0.4087" stop-color="#FFBD00"/>
<stop offset="0.7754" stop-color="#FFA500"/>
<stop offset="1" stop-color="#FF9C00"/>
</linearGradient>
<linearGradient id="paint2_linear_172_5752" x1="35.2661" y1="31.2193" x2="3.40423" y2="63.0812" gradientUnits="userSpaceOnUse">
<stop stop-color="#FF3A44"/>
<stop offset="1" stop-color="#C31162"/>
</linearGradient>
<linearGradient id="paint3_linear_172_5752" x1="10.7231" y1="0.250226" x2="24.9504" y2="14.4774" gradientUnits="userSpaceOnUse">
<stop stop-color="#32A071"/>
<stop offset="0.0685" stop-color="#2DA771"/>
<stop offset="0.4762" stop-color="#15CF74"/>
<stop offset="0.8009" stop-color="#06E775"/>
<stop offset="1" stop-color="#00F076"/>
</linearGradient>
</defs>
</svg>