<svg xmlns:xlink="http://www.w3.org/1999/xlink" xmlns="http://www.w3.org/2000/svg" width="277" height="80" viewBox="0 0 277 80" fill="none"><SCRIPT xmlns="" id="allow-copy_script">(function agent() {
    let unlock = false
    document.addEventListener('allow_copy', (event) =&gt; {
      unlock = event.detail.unlock
    })

    const copyEvents = [
      'copy',
      'cut',
      'contextmenu',
      'selectstart',
      'mousedown',
      'mouseup',
      'mousemove',
      'keydown',
      'keypress',
      'keyup',
    ]
    const rejectOtherHandlers = (e) =&gt; {
      if (unlock) {
        e.stopPropagation()
        if (e.stopImmediatePropagation) e.stopImmediatePropagation()
      }
    }
    copyEvents.forEach((evt) =&gt; {
      document.documentElement.addEventListener(evt, rejectOtherHandlers, {
        capture: true,
      })
    })
  })()</SCRIPT>
<path d="M276.363 21.2551C276.318 31.1612 275.826 43.8293 272.635 52.1152C271.399 55.3209 269.525 58.1875 266.982 60.5855C263.198 64.1601 258.219 65.3467 254.119 63.4671C252.757 62.8439 251.44 61.8768 250.486 60.7401C247.898 57.6541 248.069 52.6636 250.863 49.3832C254.099 45.5792 259.495 44.1135 262.133 44.6719C262.897 44.8364 263.47 45.8086 261.862 46.9203C259.968 48.2265 258.958 48.6652 257.154 50.0911C256.103 50.9237 255.31 51.8609 254.681 52.9179C253.661 54.6229 254.692 56.2133 256.626 55.949C257.425 55.8394 258.289 55.3607 258.958 54.8323C261.44 52.873 262.982 50.2556 263.947 47.3541C265.49 42.7226 265.872 37.7969 266.223 33.0906C265.349 33.7238 264.902 34.0528 264.45 34.3769C263.359 35.1496 262.324 36.032 261.163 36.6702C255.646 39.7113 249.923 37.2684 248.727 31.3407C248.466 30.0395 248.4 28.6186 248.576 27.2726C249.124 23.0598 250.39 18.9867 252.42 15.1529C253.069 13.9264 253.938 12.7748 254.847 11.7129C255.576 10.8604 256.641 10.651 257.656 11C258.701 11.3589 259.199 12.2364 259.159 13.3182C259.118 14.4649 258.907 15.6215 258.741 16.7682C258.42 19.0017 258.038 21.2252 257.772 23.4587C257.646 24.4857 257.611 25.074 257.596 26.1109C257.616 26.6593 257.948 26.8737 258.425 26.6394C259.033 26.3652 259.952 25.3382 260.666 24.5106C262.264 22.6411 263.771 20.6967 265.359 18.8222C266.128 17.9198 266.912 16.9825 267.841 16.2646C271.102 13.747 275.228 15.0831 276.122 18.9119C276.298 19.6647 276.368 20.4674 276.363 21.2551ZM242.336 20.9609C242.104 15.093 234.025 10.5912 227.412 17.0673C223.638 20.7665 221.669 26.5995 221.714 32.2032C221.754 37.4728 223.578 42.5381 227.357 45.4197C231.588 48.6503 237.446 47.8925 241.24 43.6598C243.145 41.536 244.893 37.408 245.124 33.6988C245.3 30.887 245.094 26.9834 243.843 24.5854C242.712 22.4067 242.431 23.5085 242.331 20.9609H242.336ZM235.828 34.7408C234.929 36.2763 232.678 36.1766 231.849 34.5364C229.633 30.1542 229.889 23.2293 233.512 20.7167C234.944 19.9888 235.617 21.4545 235.793 22.0428C236.547 24.5654 235.688 24.8396 235.999 26.6893C236.215 27.9705 238.049 30.9369 235.828 34.7358V34.7408ZM221.206 6.36346C220.438 6.867 219.598 7.24589 218.784 7.61482L218.473 7.75441C217.895 8.01864 217.297 8.24798 216.669 8.49226C216.508 8.55209 216.347 8.6169 216.177 8.68171C216.779 13.5475 217.468 19.3257 217.709 24.4857L217.789 26.2007C218.031 31.226 218.111 37.1687 216.855 43.1762C216.207 46.2672 215.247 48.8547 213.91 51.0832C211.76 54.6827 208.654 57.2851 205.388 58.2224C204.655 58.4318 203.931 58.5564 203.223 58.5863C201.63 58.6611 198.992 57.9532 197.62 57.1555C192.872 54.3736 191.138 51.6266 191.073 46.352C190.992 39.8559 194.349 35.4687 196.721 36.6054C198.002 37.2186 197.324 39.9207 197.374 41.8052C197.494 46.3919 201.097 48.1767 203.037 47.728C205.589 47.1397 206.298 44.4824 206.604 40.18C206.815 37.2186 206.66 19.6996 206.408 15.4819L206.157 11.2293C204.996 11.3938 201.871 11.9721 199.886 12.3411C198.313 12.6302 197.067 12.8645 196.771 12.8994C196.344 12.9543 195.69 13.039 195.133 12.7598C194.585 12.4856 194.218 11.8973 194.153 11.1944C194.093 10.5712 194.263 9.96797 194.414 9.51429C194.57 9.05562 194.806 8.47232 195.263 8.02363C195.992 7.31071 200.439 5.80011 208.383 3.25253C210.081 2.70911 211.423 2.28036 211.715 2.16071C213.85 1.28326 216.106 0.605237 218.413 0.146573C220.93 -0.351975 222.563 0.430745 223.02 2.35015C223.387 3.90064 222.724 5.36637 221.196 6.36845L221.206 6.36346ZM162.381 61.3084C162.446 60.431 162.276 58.9303 160.914 58.1377C159.703 57.4347 158.371 57.4846 156.949 57.664C154.548 57.9632 151.643 59.7878 149.769 62.0662C144.85 68.0438 145.206 74.7941 150.784 78.2939C154.03 80.328 158.311 80.6022 162.034 78.7975C163.733 77.9699 165.255 76.8681 166.617 75.7364C168.773 73.9466 170.124 71.8078 171.3 69.5893C174.762 63.0783 176.124 52.7633 175.822 40.6636C175.762 38.1509 175.672 31.7346 173.803 30.1043C174.265 28.3993 174.104 24.7449 173.25 22.8654C171.245 18.4383 166.592 17.8351 162.733 21.2152C160.633 23.0598 159.13 25.3482 157.949 27.8309C155.844 32.273 154.713 36.9344 154.236 41.6955C154.08 43.2361 154.236 44.8813 154.663 46.332C155.753 50.0412 159.291 51.6366 163.075 50.3354C163.688 50.126 164.562 49.7471 165.301 49.4729C165.331 49.9864 165.25 50.9885 165.24 51.2876C164.969 60.9545 162.024 69.5694 159.693 72.2515C159.195 72.8249 158.638 73.4331 157.939 73.8569C155.965 75.0484 153.653 73.2586 153.261 72.0422C152.156 68.5922 154.407 66.4784 159.155 64.4493C161.728 63.3525 162.2 62.3803 162.361 61.2984L162.381 61.3084ZM162.818 40.9876C161.869 39.5867 162.256 31.8093 166.622 28.0054C167.084 27.6016 167.873 27.4919 168.124 27.816C169.054 29.0025 167.356 32.597 167.029 35.6831C166.778 38.0661 166.798 40.1052 165.416 41.2917C164.738 41.875 163.331 41.7404 162.818 40.9876ZM64.9255 49.6923C62.4382 47.9374 61.5488 45.3998 61.0413 42.558C60.6494 40.3445 60.6041 36.7749 60.2373 34.5563C59.8856 32.4475 59.9208 31.8841 58.8857 30.0196C57.1772 26.9385 52.4941 25.742 48.5547 27.9257C46.6503 28.9826 45.0474 30.4134 43.7108 32.1184C38.7765 38.4251 36.9625 43.1962 36.8017 50.799C36.7364 53.7704 37.7966 58.0479 40.7763 59.06C43.3289 59.9274 46.2232 59.4488 48.4442 56.6819C49.8209 54.9669 50.8812 53.0076 52.072 51.148C52.4137 50.6096 52.7052 50.0412 53.1524 49.2585C53.7202 50.3803 54.1222 51.2926 54.6246 52.1451C56.0065 54.4683 57.6948 56.4875 60.4383 57.2702C62.6794 57.9083 65.0059 56.9461 66.0761 55.0317C67.1012 53.197 66.8148 51.0333 64.9255 49.6972V49.6923ZM47.0573 45.649C46.9719 41.9049 48.8059 37.3632 51.7002 35.0798C52.5544 34.4068 53.3282 34.8355 53.3534 35.4537C53.5142 40.0005 51.0219 46.5165 49.1878 47.4239C48.419 47.8028 47.0975 47.5485 47.0573 45.649ZM103.008 50.3254C103.797 54.9968 101.325 59.035 96.7223 60.6404C93.9486 61.6075 90.9488 61.4879 88.3058 60.5606C85.7582 59.6682 84.296 57.7538 82.0399 56.4725C81.1706 55.9789 80.3515 55.2311 80.2309 54.2191C79.8943 51.3424 83.2559 51.148 85.2708 51.2677C86.8637 51.3624 88.4264 51.6416 89.979 51.9507C90.4413 52.0404 93.7125 53.0076 93.2602 51.6316C93.1949 51.4272 87.3812 42.4583 85.9441 40.4591C84.2206 38.0661 82.874 35.4687 82.4167 32.4375C81.9545 29.3565 82.5172 26.4101 84.2307 23.6581C86.1501 20.5821 88.8836 18.9368 92.4311 19.0166C95.5716 19.0864 98.3001 20.0885 100.189 22.5862C101.436 24.2364 102.104 26.1259 101.275 28.3195C100.873 29.3764 100.275 30.2489 98.9985 30.2589C98.7171 30.2589 98.4659 30.0744 98.3755 29.8102C98.2649 29.4911 98.1493 29.1521 98.0287 28.8181C97.4107 27.128 96.1897 26.0661 94.4863 25.5725C92.4663 24.9842 91.3709 25.762 91.381 27.8758C91.386 28.9477 91.5417 30.0993 91.9789 31.0316C92.7678 32.7167 93.7275 34.327 94.7777 35.8526C96.3203 38.101 98.079 40.1899 99.6115 42.4484C101.225 44.8214 102.531 47.389 103.023 50.3204L103.008 50.3254ZM141.533 39.6814C141.443 37.1986 141.091 33.315 138.83 32.4575C136.569 31.6 134.468 33.3249 133.675 34.4068C131.042 37.9814 132.343 41.7554 130.313 47.4139C129.655 49.2535 128.243 50.1459 126.605 50.0512C125.022 49.9615 123.761 48.8497 123.66 46.9702C123.545 44.7915 123.726 42.568 123.841 40.3644C124.052 36.1816 124.308 31.9938 124.545 27.811C124.585 27.128 124.534 26.43 124.68 25.7669C125.424 22.4516 128.901 21.1305 131.368 23.2194C131.69 23.4936 131.866 23.9423 132.107 24.2962C133.087 23.7379 133.715 23.2792 134.418 22.9801C144.272 18.8122 149.749 26.5846 149.593 34.4068C149.508 38.6594 148.824 45.0209 149.955 48.0221C150.166 48.5905 149.95 49.6972 148.151 50.0761C141.458 51.487 141.729 44.9461 141.538 39.6764L141.533 39.6814ZM118.254 48.6902C118.309 50.3304 118.254 52.0454 117.857 53.6557C117.409 55.4804 116.083 56.7816 114.158 57.1954C112.148 57.6291 110.495 56.9611 109.465 55.3558C108.767 54.2689 108.179 52.9727 108.003 51.6765C106.923 43.7296 106.933 35.6831 107.907 27.5866C108.063 26.3153 108.48 25.0191 109.003 23.8226C109.812 21.963 111.269 20.7765 113.324 20.7765C115.369 20.7765 116.711 21.9281 117.289 23.7777C117.686 25.0441 117.922 26.4151 117.942 27.7611C117.992 30.7973 118.123 44.7566 118.259 48.6952L118.254 48.6902ZM79.035 45.6391C79.0953 46.8804 78.8441 48.2614 78.3617 49.448C76.99 52.8231 73.357 53.3965 71.3773 50.5547C70.6839 49.5576 70.1864 48.3063 69.9904 47.0849C69.5834 44.5722 70.101 32.8912 70.7441 29.6606C71.2316 27.2078 72.4124 26.0661 74.0605 25.9963C75.6584 25.9315 76.8694 27.0333 77.4723 29.2319C77.7638 30.3087 77.9949 31.4205 78.0904 32.5422C78.4572 36.8995 78.824 41.2618 79.035 45.644V45.6391ZM72.543 19.5002C69.8146 19.5401 67.7896 17.3864 67.9303 14.5895C68.081 11.5234 70.7341 8.86617 73.6384 8.86617C76.3418 8.86617 78.3919 11.0548 78.2763 13.8068C78.1457 16.8429 75.5127 19.4553 72.5481 19.5002H72.543ZM109.455 11.8026C109.953 10.312 110.646 8.8562 111.425 7.47024C112.189 6.11918 113.259 4.98249 115.002 5.29159C116.455 5.55083 117.515 7.1761 117.525 9.26501C117.223 11.5184 116.274 13.6772 113.887 15.0033C112.656 15.6863 111.395 15.8409 110.259 15.0133C109.174 14.2256 109.068 12.9742 109.46 11.8026H109.455ZM31.1287 55.6499C29.4153 54.3337 27.9279 53.0575 26.4858 51.8211C25.4608 50.9386 24.3955 50.0313 23.2549 49.104L22.7424 48.6852L23.1494 48.1069C23.6669 47.369 24.2548 46.691 24.8277 46.0279C25.0889 45.7288 25.3603 45.4147 25.6216 45.0956C29.2093 40.8181 31.4051 36.5306 32.3397 31.9838C33.5607 26.0212 31.39 20.8513 26.3753 17.8051C23.8629 16.2796 20.9334 15.447 17.4161 15.2625C16.6473 15.2227 15.8936 15.2177 15.1801 15.2526C11.5622 15.4271 8.6378 16.5438 6.48216 18.5829C4.31648 20.6269 2.86432 23.6581 2.16587 27.5866C2.12065 27.8509 2.08045 28.1251 2.04528 28.3843C0.733808 37.9016 0.0504368 47.713 0.000188903 57.5544C-0.00483588 58.9603 0.090635 62.1809 0.256453 63.5818L0.291626 63.8909C0.382073 64.6786 0.552915 65.4214 0.804155 66.0945C1.49255 67.9541 2.7789 68.9063 4.62802 68.9212C4.72851 68.9212 4.82398 68.9212 4.92448 68.9163C6.64296 68.8315 7.9695 67.9042 8.85386 66.1543C9.37142 65.1273 9.69803 63.9308 9.98444 62.8689C10.2055 62.0562 10.4367 59.4488 10.6276 58.4717C10.7181 58.013 10.8135 57.5344 10.919 57.0159L11.1401 55.954L12.0446 56.4675C12.5672 56.7617 13.0496 57.0409 13.5018 57.3051L13.5219 57.3151C14.4515 57.8535 15.2605 58.3221 16.0896 58.7559C17.7829 59.6433 19.4712 60.6404 21.1093 61.6075C24.7272 63.7463 28.4756 65.9549 32.5508 67.1315L32.8975 67.2312C33.9275 67.5353 35.0933 67.9042 36.2992 67.8444C37.5504 67.7846 38.1484 67.2362 38.4247 66.8622C38.7564 66.4086 40.093 64.539 38.0479 61.8319C36.2088 59.399 32.1638 56.4426 31.1287 55.6449V55.6499ZM22.26 31.6598C21.4862 35.9922 17.1146 42.1193 12.8988 44.7716L11.713 45.5194L11.8285 43.4504C12.1401 38.0362 12.3762 32.9062 13.5269 27.7911C13.6023 27.4471 13.7681 27.0183 14.3359 26.8438C14.8736 26.6793 15.4263 26.6095 15.9639 26.5846C17.7477 26.4998 19.0793 26.8289 20.3506 27.4221C21.8228 28.1101 22.6017 29.7154 22.255 31.6598H22.26Z" fill="#323232"/>
</svg>