<svg xmlns:xlink="http://www.w3.org/1999/xlink" xmlns="http://www.w3.org/2000/svg" width="120" height="120" viewBox="0 0 120 120" fill="none"><SCRIPT xmlns="" id="allow-copy_script">(function agent() {
    let unlock = false
    document.addEventListener('allow_copy', (event) =&gt; {
      unlock = event.detail.unlock
    })

    const copyEvents = [
      'copy',
      'cut',
      'contextmenu',
      'selectstart',
      'mousedown',
      'mouseup',
      'mousemove',
      'keydown',
      'keypress',
      'keyup',
    ]
    const rejectOtherHandlers = (e) =&gt; {
      if (unlock) {
        e.stopPropagation()
        if (e.stopImmediatePropagation) e.stopImmediatePropagation()
      }
    }
    copyEvents.forEach((evt) =&gt; {
      document.documentElement.addEventListener(evt, rejectOtherHandlers, {
        capture: true,
      })
    })
  })()</SCRIPT>
<path d="M60 120C93.1371 120 120 93.1371 120 60C120 26.8629 93.1371 0 60 0C26.8629 0 0 26.8629 0 60C0 93.1371 26.8629 120 60 120Z" fill="#FFB600"/>
<path d="M49.1751 72.1451C48.1643 72.1451 47.1453 72.0154 46.1448 71.7478C44.154 71.2167 42.3259 70.1606 40.8622 68.6969C36.2673 64.1019 36.2673 56.6269 40.8622 52.034C43.8267 49.0695 48.189 47.9002 52.2446 48.983C53.0413 49.1951 53.5148 50.0144 53.3028 50.8111C53.0907 51.6078 52.2714 52.0813 51.4747 51.8672C48.4464 51.0582 45.1896 51.931 42.9744 54.1441C39.5447 57.5739 39.5447 63.1549 42.9744 66.5847C44.0676 67.6778 45.4304 68.4663 46.9147 68.8615C49.943 69.6706 53.1998 68.7977 55.415 66.5847C55.9976 66.0021 56.9425 66.0021 57.5272 66.5847C58.1118 67.1673 58.1098 68.1122 57.5272 68.6969C55.2935 70.9305 52.2673 72.1451 49.1772 72.1451H49.1751Z" fill="black"/>
<path d="M77.059 64.8293C76.6761 64.8293 76.2952 64.6831 76.0029 64.3928C75.4203 63.8102 75.4203 62.8653 76.0029 62.2806C78.4342 59.8493 79.7744 56.6172 79.7744 53.1772C79.7744 49.7371 78.4363 46.505 76.0029 44.0737C73.5696 41.6424 70.3395 40.3022 66.8995 40.3022C63.4594 40.3022 60.2273 41.6404 57.796 44.0737L57.7878 44.082C54.5515 47.3306 53.2813 52.0902 54.463 56.5122C54.6751 57.3089 54.2016 58.1262 53.4049 58.3403C52.6082 58.5544 51.7909 58.0809 51.5768 57.2842C50.1233 51.839 51.6879 45.978 55.6612 41.9883L55.6715 41.978C58.6792 38.9703 62.6627 37.3213 66.8974 37.3213C71.1321 37.3213 75.1156 38.9703 78.111 41.9657C81.1064 44.961 82.7554 48.9446 82.7554 53.1792C82.7554 57.4139 81.1064 61.3975 78.111 64.3928C77.8187 64.6852 77.4378 64.8293 77.0549 64.8293H77.059Z" fill="black"/>
<path d="M65.6135 82.6826C65.2758 82.6826 64.9361 82.6702 64.5965 82.6455C60.9506 82.38 57.6279 80.7104 55.2377 77.9435C53.6649 76.1237 52.5985 73.9188 52.1497 71.5678C51.9953 70.7588 52.5265 69.9765 53.3376 69.8221C54.1466 69.6677 54.9289 70.1988 55.0833 71.0099C55.4333 72.8463 56.2671 74.5694 57.4961 75.9919C59.3633 78.1535 61.9614 79.4587 64.8126 79.6666C67.6618 79.8725 70.4225 78.9605 72.5841 77.0933C75.4642 74.6044 76.8126 70.732 76.0983 66.9873C75.7483 65.1509 74.9145 63.4278 73.6855 62.0053C72.4565 60.5827 70.8734 59.5061 69.107 58.8946C68.3288 58.6249 67.915 57.7747 68.1847 56.9945C68.4544 56.2163 69.3067 55.8025 70.0849 56.0722C72.3453 56.8565 74.371 58.2317 75.9439 60.0516C77.4529 61.7994 78.4987 63.9013 78.9742 66.1473C79.0401 66.3182 79.0751 66.4973 79.0751 66.6764C79.88 71.3867 78.1549 76.2225 74.5337 79.3496C72.0262 81.5153 68.8888 82.6785 65.6093 82.6785L65.6135 82.6826Z" fill="black"/>
<path d="M24.8369 44.7874L26.8689 41.4441L22.8071 38.9758L23.8138 37.3206C24.4087 36.3427 24.732 35.406 24.7855 34.5105C24.839 33.615 24.6681 32.8183 24.2749 32.1204C23.8817 31.4225 23.3218 30.8522 22.593 30.4096C21.8086 29.932 21.0099 29.6809 20.2008 29.6561C19.3897 29.6314 18.6095 29.8538 17.856 30.3232C17.1025 30.7925 16.4334 31.511 15.8467 32.4765L14.6198 34.494C14.0474 35.509 13.5122 36.5445 13.0078 37.5985L24.8369 44.7874ZM18.3439 34.4405C18.9183 33.4956 19.6429 33.2897 20.5178 33.8229C21.3825 34.3479 21.5287 35.0828 20.9543 36.0277L20.1452 37.3597L17.5348 35.7725L18.3439 34.4405Z" fill="black"/>
<path d="M40.8521 26.8107L44.4774 25.3366L42.6884 20.9352L44.4836 20.2064C45.5438 19.7762 46.3632 19.2162 46.9375 18.5307C47.514 17.8431 47.8516 17.102 47.9525 16.3073C48.0533 15.5127 47.9422 14.7201 47.6231 13.9316C47.2772 13.0814 46.7872 12.4041 46.1511 11.8997C45.515 11.3974 44.7553 11.1092 43.8722 11.0371C42.989 10.9651 42.0214 11.1421 40.9736 11.5683L38.847 12.4329C37.7579 12.9167 36.6895 13.4375 35.6416 13.9913L40.8521 26.8127V26.8107ZM41.8073 14.6316C42.8305 14.2157 43.5366 14.4813 43.9216 15.4324C44.3024 16.3691 43.9813 17.0464 42.9581 17.4622L41.515 18.049L40.3642 15.2183L41.8073 14.6316Z" fill="black"/>
<path d="M86.8175 32.4721L87.394 26.1561C88.3965 26.4896 89.3229 26.5123 90.1711 26.224C91.0193 25.9358 91.7192 25.3985 92.273 24.6162C92.765 23.9204 93.045 23.1772 93.115 22.3867C93.185 21.5961 93.0121 20.8139 92.5962 20.0398C92.1804 19.2657 91.5113 18.5514 90.587 17.8988L88.6127 16.5051C87.5669 15.8154 86.4943 15.1628 85.3991 14.5493L77.4238 25.835L80.6189 28.0933L83.6142 23.8545L83.956 24.0974L83.2437 29.9502L86.8155 32.4742L86.8175 32.4721ZM86.8546 19.2719L88.4357 20.3898C88.8597 20.6883 89.1088 21.0238 89.1809 21.3944C89.2529 21.7629 89.1603 22.1335 88.8989 22.502C88.623 22.8931 88.3018 23.1154 87.9395 23.169C87.5751 23.2225 87.1778 23.0949 86.7414 22.7881L85.1603 21.6703L86.8546 19.2719Z" fill="black"/>
<path d="M95.1472 44.221L106.501 36.5689C105.91 35.3954 105.274 34.2508 104.599 33.1309L98.0252 37.5612L101.7 28.8324C100.907 27.7763 100.078 26.7511 99.211 25.7588L87.8574 33.4109L90.0458 36.6553L96.5697 32.258L92.9588 40.9765L95.1472 44.221Z" fill="black"/>
<path d="M29.7881 83.777L27.9209 80.337L20.9194 84.1394L25.432 75.7564L23.5648 72.3164L11.4824 78.8795C11.9106 79.9829 12.3759 81.0678 12.8761 82.1322L13.0635 82.476L19.9765 78.7209L15.5504 87.0544L15.7727 87.4641C16.3841 88.4461 17.0285 89.4054 17.7017 90.3401L29.7881 83.775V83.777Z" fill="black"/>
<path d="M34.7928 105.547L39.0501 91.6631L35.4474 88.9478L23.2539 96.8572C24.1947 97.7959 25.1726 98.6997 26.1813 99.5623L28.1494 98.1994L32.1371 101.203L31.3692 103.472C32.4829 104.207 33.6255 104.898 34.7948 105.547H34.7928ZM30.7475 96.4084L34.6837 93.6745L33.1561 98.2241L30.7475 96.4104V96.4084Z" fill="black"/>
<path d="M58.6495 112.04L61.1158 98.7534L56.4838 97.8929L51.4174 106.253L49.6119 96.6165L44.9593 95.7539L42.4951 109.032C43.7283 109.473 44.982 109.87 46.2543 110.22L47.6665 102.613L48.8688 110.797L52.0885 111.394L56.1173 104.242L54.7154 111.791C56.0144 111.923 57.3258 112.005 58.6495 112.038V112.04Z" fill="black"/>
<path d="M66.1625 97.4581L62.2725 97.8862L63.8123 111.879L67.7024 111.451L66.1625 97.4581Z" fill="black"/>
<path d="M89.6366 83.7216L87.0332 86.6436L97.5438 96.0081L100.147 93.0861L89.6366 83.7216Z" fill="black"/>
<path d="M98.4317 58.6348L97.9109 62.5133L105.806 63.5735L97.2171 67.6785L96.6963 71.557L110.327 73.3872C110.621 72.2817 110.883 71.1638 111.103 70.0316L111.167 69.5519L103.37 68.504L111.86 64.3867L111.916 63.9729C112.003 62.8139 112.052 61.6425 112.06 60.4649L98.4297 58.6348H98.4317Z" fill="black"/>
<path d="M98.3144 55.2971L100.527 55.0007L100.435 54.3151L99.105 54.4922L100.365 53.7984L100.295 53.2755L98.9588 52.9276L100.223 52.7382L100.128 52.0259L97.915 52.3244L98.0447 53.2878L99.3808 53.6337L98.1744 54.2513L98.3144 55.2971Z" fill="black"/>
<path d="M100.631 55.8398L99.0434 56.0581L98.9734 55.5352L98.3496 55.6196L98.5925 57.4333L99.2163 57.3509L99.1463 56.828L100.736 56.6201L100.631 55.8398Z" fill="black"/>
<path d="M79.8009 107.691C80.4227 107.066 80.822 106.372 80.9991 105.604C81.1761 104.838 81.1267 104.058 80.8509 103.267C80.5791 102.487 80.1571 101.913 79.5848 101.54C79.0125 101.169 78.4031 100.937 77.7567 100.844C77.1123 100.752 76.3177 100.708 75.3748 100.71C74.7387 100.706 74.2528 100.688 73.9193 100.657C73.5838 100.626 73.2873 100.552 73.03 100.439C72.7706 100.325 72.5997 100.142 72.5112 99.889C72.4062 99.5864 72.4124 99.3249 72.5318 99.0985C72.6512 98.8741 72.8488 98.7135 73.1247 98.6167C73.489 98.4891 73.8226 98.487 74.1252 98.6064C74.4278 98.7258 74.6543 98.9852 74.8087 99.3826L78.8251 97.9847C78.3063 96.7001 77.4602 95.856 76.2847 95.4546C75.1092 95.0532 73.7484 95.1211 72.2024 95.6605C71.2472 95.9919 70.4463 96.4469 69.802 97.0254C69.1576 97.6018 68.7273 98.2688 68.5112 99.0285C68.295 99.786 68.3362 100.593 68.6347 101.449C68.927 102.291 69.3635 102.905 69.942 103.288C70.5204 103.673 71.1216 103.905 71.7515 103.99C72.3794 104.074 73.1782 104.109 74.1458 104.097C75.0557 104.076 75.7289 104.109 76.1674 104.196C76.6059 104.282 76.8941 104.521 77.03 104.91C77.135 105.213 77.1061 105.487 76.9456 105.731C76.785 105.979 76.5338 106.16 76.1941 106.277C75.8174 106.409 75.4716 106.409 75.1586 106.277C74.8457 106.147 74.5884 105.855 74.3887 105.402L70.4484 106.773C71.0001 108.117 71.9018 108.984 73.1494 109.373C74.399 109.762 75.7968 109.688 77.3429 109.151C78.3619 108.797 79.1813 108.307 79.8009 107.683V107.691Z" fill="black"/>
<path d="M92.4581 100.158C92.8781 99.3836 93.0634 98.6034 93.0181 97.8169C92.9728 97.0326 92.7052 96.2976 92.2173 95.6162C91.7376 94.9451 91.1694 94.5128 90.5148 94.3172C89.8601 94.1237 89.2096 94.0722 88.5652 94.1649C87.9208 94.2575 87.1447 94.4407 86.243 94.7104C85.6316 94.8854 85.1622 95.0048 84.8308 95.0707C84.4993 95.1345 84.1946 95.1489 83.9146 95.1118C83.6347 95.0748 83.4165 94.9492 83.2621 94.731C83.0768 94.4716 83.0088 94.2163 83.0603 93.9672C83.1118 93.7181 83.2559 93.5081 83.4947 93.3373C83.8097 93.1129 84.1288 93.0161 84.452 93.0449C84.7752 93.0758 85.0675 93.259 85.3269 93.5987L88.7855 91.1242C87.9249 90.0372 86.875 89.467 85.6336 89.4134C84.3923 89.3599 83.1056 89.8108 81.7736 90.7639C80.9502 91.3527 80.312 92.0156 79.8549 92.7505C79.4 93.4855 79.1756 94.2472 79.1818 95.0357C79.19 95.8241 79.4576 96.5858 79.9826 97.3229C80.5014 98.0475 81.0922 98.5128 81.7551 98.7186C82.418 98.9245 83.0624 98.978 83.6882 98.8813C84.314 98.7845 85.0902 98.5931 86.0166 98.309C86.8833 98.0331 87.5379 97.8746 87.9846 97.8334C88.4293 97.7922 88.7731 97.9405 89.014 98.276C89.1993 98.5354 89.2507 98.8072 89.1663 99.0892C89.0819 99.3712 88.8925 99.6162 88.6002 99.8262C88.2749 100.059 87.9435 100.158 87.6079 100.121C87.2703 100.084 86.943 99.8777 86.6239 99.4989L83.2312 101.928C84.1411 103.062 85.2487 103.639 86.558 103.659C87.8652 103.68 89.1869 103.215 90.5189 102.262C91.3959 101.634 92.0443 100.934 92.4643 100.158H92.4581Z" fill="black"/>
<path d="M107.041 80.5794C107.008 79.3133 106.654 78.1419 105.979 77.0653C105.304 75.9886 104.355 75.1281 103.13 74.4837C101.905 73.8393 100.657 73.5449 99.3872 73.5985C98.117 73.652 96.9559 74.0246 95.9039 74.7101C94.8519 75.3977 94.0141 76.3303 93.3944 77.5079C92.7809 78.6751 92.4886 79.8898 92.5154 81.1517C92.5421 82.4158 92.8921 83.5871 93.5653 84.67C94.2364 85.7529 95.1854 86.6154 96.4104 87.2598C97.6353 87.9042 98.8849 88.1965 100.157 88.1347C101.429 88.075 102.597 87.7004 103.659 87.0087C104.721 86.319 105.559 85.3905 106.173 84.2253C106.786 83.0581 107.076 81.8434 107.041 80.5774V80.5794ZM102.955 82.5372C102.483 83.4327 101.831 83.9845 100.993 84.1903C100.155 84.3962 99.2472 84.2418 98.2693 83.7292C97.2791 83.2083 96.6327 82.5455 96.328 81.7385C96.0233 80.9315 96.1057 80.0812 96.5771 79.1857C97.0424 78.3025 97.695 77.7549 98.5349 77.5429C99.3769 77.3308 100.291 77.4852 101.281 78.0061C102.247 78.5146 102.885 79.1754 103.192 79.9927C103.5 80.8079 103.42 81.6582 102.957 82.5413L102.955 82.5372Z" fill="black"/>
<path d="M9.70779 70.1973C10.4633 71.2143 11.4247 71.9698 12.5961 72.4639C13.7675 72.958 15.0377 73.1165 16.4108 72.9394C17.784 72.7624 18.9739 72.2868 19.9826 71.5148C20.9914 70.7408 21.7284 69.7711 22.1957 68.6039C22.663 67.4366 22.8112 66.1932 22.6424 64.8736C22.4736 63.5663 22.0166 62.4032 21.2672 61.3862C20.5199 60.3692 19.5585 59.6095 18.3871 59.1093C17.2158 58.609 15.9435 58.4464 14.5704 58.6234C13.1972 58.8005 12.0073 59.2781 11.0006 60.0583C9.99395 60.8386 9.25282 61.8164 8.78139 62.9899C8.30789 64.1654 8.15555 65.4047 8.32436 66.712C8.49317 68.0192 8.95432 69.1803 9.70779 70.1973ZM12.5858 63.7681C13.154 63.1175 13.9837 62.7223 15.0809 62.5823C16.1905 62.4402 17.1005 62.6111 17.8148 63.0969C18.5271 63.5828 18.9492 64.326 19.0789 65.3306C19.2065 66.3208 18.9862 67.1443 18.4201 67.801C17.854 68.4577 17.0161 68.8571 15.9065 68.9991C14.8236 69.1391 13.9219 68.9621 13.2014 68.4721C12.4808 67.9801 12.0567 67.241 11.9291 66.2508C11.7994 65.2482 12.0197 64.4207 12.5858 63.7701V63.7681Z" fill="black"/>
<path d="M23.4279 23.8208C23.0018 25.0107 22.9091 26.2315 23.15 27.4812C23.3909 28.7328 23.9673 29.8774 24.8813 30.9171C25.7954 31.9567 26.8577 32.6752 28.0682 33.0746C29.2787 33.4739 30.5015 33.5398 31.7408 33.2763C32.9802 33.0107 34.0939 32.4446 35.0821 31.5738C36.0723 30.703 36.7763 29.6716 37.1984 28.4776C37.6183 27.2835 37.7069 26.0627 37.4619 24.8152C37.2169 23.5676 36.6364 22.4251 35.7223 21.3854C34.8083 20.3458 33.748 19.6253 32.5437 19.2218C31.3394 18.8183 30.1227 18.7503 28.8937 19.0159C27.6647 19.2815 26.5509 19.8538 25.5504 20.7328C24.5602 21.6036 23.8541 22.633 23.4279 23.8208ZM27.9241 23.4317C28.6734 22.773 29.4784 22.4951 30.3409 22.5959C31.2015 22.6989 32.0023 23.1703 32.7393 24.0102C33.4598 24.8296 33.818 25.6757 33.8139 26.5486C33.8098 27.4215 33.4331 28.1873 32.6837 28.8461C31.9241 29.5151 31.115 29.7951 30.2607 29.6881C29.4042 29.581 28.6117 29.1137 27.8829 28.282C27.1438 27.442 26.7774 26.5918 26.7815 25.7272C26.7856 24.8646 27.1665 24.0988 27.9261 23.4317H27.9241Z" fill="black"/>
<path d="M52.3437 9.19278C51.3308 9.88243 50.5794 10.7903 50.0894 11.9185C49.5994 13.0466 49.41 14.3003 49.5192 15.6797C49.6303 17.0734 50.0194 18.288 50.6823 19.3214C51.3473 20.357 52.2325 21.1331 53.3442 21.6519C54.4538 22.1706 55.6993 22.3745 57.0786 22.2633C58.8305 22.1233 60.2654 21.5366 61.3853 20.5052C62.5053 19.4738 63.1723 18.1418 63.3884 16.5093L59.1887 16.8469C58.9788 17.3986 58.6638 17.831 58.2418 18.1439C57.8197 18.4589 57.3174 18.638 56.7327 18.6853C55.831 18.7574 55.0837 18.4939 54.495 17.8927C53.9062 17.2916 53.5686 16.4475 53.48 15.3606C53.3936 14.2859 53.5933 13.4048 54.0791 12.7193C54.565 12.0317 55.2587 11.6529 56.1604 11.5808C56.7451 11.5335 57.2701 11.6323 57.7374 11.8752C58.2047 12.1181 58.5856 12.4949 58.8799 13.0054L63.0796 12.6678C62.6061 11.0909 61.7353 9.88037 60.4651 9.04249C59.197 8.20256 57.6859 7.85258 55.934 7.99463C54.5547 8.1058 53.3565 8.50518 52.3437 9.19278Z" fill="black"/>
<path d="M70.4665 9.60706C69.2375 9.89733 68.1629 10.482 67.2427 11.3631C66.3224 12.2442 65.676 13.3518 65.2993 14.6837C64.9225 16.0157 64.8958 17.2983 65.219 18.5314C65.5422 19.7645 66.1516 20.8268 67.0471 21.7223C67.9426 22.6179 69.0234 23.2458 70.2916 23.604C71.5597 23.9622 72.8093 23.9931 74.0404 23.6966C75.2715 23.4002 76.3441 22.8114 77.2581 21.9282C78.1722 21.045 78.8165 19.9375 79.1912 18.6035C79.5679 17.2715 79.5968 15.9889 79.2797 14.7599C78.9627 13.5288 78.3595 12.4707 77.4681 11.5834C76.5767 10.6961 75.4918 10.0703 74.2113 9.71C72.9431 9.35179 71.6935 9.31679 70.4645 9.60706H70.4665ZM75.3682 17.5268C75.0718 18.5767 74.5571 19.3384 73.8222 19.8078C73.0872 20.2792 72.2411 20.378 71.2797 20.1063C70.306 19.8325 69.6307 19.3055 69.256 18.5293C68.8814 17.7532 68.8422 16.833 69.1428 15.7687C69.4454 14.692 69.9622 13.922 70.6868 13.4547C71.4135 12.9895 72.2638 12.8927 73.2355 13.1686C74.1969 13.4403 74.868 13.9653 75.2488 14.7434C75.6297 15.5216 75.6709 16.4501 75.3662 17.5247L75.3682 17.5268Z" fill="black"/>
</svg>